<svg xmlns="http://www.w3.org/2000/svg" viewBox="0 0 3925.23 1352.68"><defs><style>.cls-1,.cls-3{fill:none;stroke-miterlimit:10;}.cls-1{stroke:#aa9b70;stroke-width:19px;}.cls-2{fill:#aa9b70;}.cls-3{stroke:#050606;stroke-width:8px;}.cls-4{fill:#050606;}</style></defs><g id="Line"><line class="cls-1" y1="684.93" x2="3811.8" y2="684.93"/><polygon class="cls-2" points="3758.44 755.29 3788.33 684.93 3758.44 614.57 3925.23 684.93 3758.44 755.29"/></g><g id="Elipses"><path class="cls-3" d="M533.45,32.69c163.65,58,287.44,327.94,287.44,652.24,0,366.58-158.18,663.75-353.31,663.75S114.27,1051.51,114.27,684.93,272.46,21.18,467.58,21.18"/><polygon class="cls-4" points="555.74 81.31 546.68 37.16 572.17 0 467.58 21.18 555.74 81.31"/><path class="cls-3" d="M527.56,240.81c108.45,47,189.22,227.42,189.22,442.81,0,251.15-109.81,454.74-245.28,454.74S226.22,934.77,226.22,683.62,336,228.88,471.5,228.88"/><polygon class="cls-4" points="544.86 283.51 538.67 245.38 561.82 214.46 471.5 228.88 544.86 283.51"/><path class="cls-3" d="M513.17,439.53c54,35,92.71,130.5,92.71,242.79,0,142-61.92,257.07-138.3,257.07S329.29,824.3,329.29,682.32,391.2,425.24,467.58,425.24"/><polygon class="cls-4" points="523.57 476.96 521.79 444.83 543.7 421.24 467.58 425.24 523.57 476.96"/></g><g id="Layer_6" data-name="Layer 6"><path d="M2644.77,481.92h64.06V610.36h-52.94V530.51h0c-15.82,26.82-33.85,53-49.78,80H2565.8c-15.65-26.6-33.44-53.08-49.38-80.17h0v80.07h-53V482.25h63.94L2586,574.71Z"/><path d="M1376.65,524.56v85.71h-53.26V482.14h64.19c23.52,28,49.07,56.24,73.17,84.9h0V482.13h53.85V610.61h-63.93"/><path d="M3378.9,567.39V482h53.23V610.22H3368c-23.56-28.17-49.53-56.88-73.73-85.81h0c-.1,28.54,0,57.08-.06,86h-53.06V482.1h64.07"/><path d="M918.19,482.09c2.48-.18,4.53-.45,6.58-.45,31.22,0,62.44-.15,93.65.22,15.5.18,30.93,2,45.68,7.1a87.9,87.9,0,0,1,18.29,8.77c10.57,6.72,17.83,16.4,18.92,29,1.06,12.31,1.61,24.87.39,37.12-1.74,17.38-12.72,28.68-28.28,35.73a102.53,102.53,0,0,1-39.41,9.54c-37.75,1-75.53,1.11-113.31,1.54a12.16,12.16,0,0,1-2.51-.66Zm53.48,96.62c14.55,0,28.37.31,42.16-.16,5-.18,10.11-1.91,15-3.46,11.82-3.74,18.13-12.11,19-24.37,1.45-21.22-6.54-31.45-25.56-35.7a79.81,79.81,0,0,0-15.3-2c-11.64-.29-23.29-.09-35.27-.09Z"/><path d="M1209.21,478.11c16.6.72,32.89,2.33,48.56,7.91,27.38,9.74,42,30.76,42,60s-14.52,50.56-41.86,60.19c-20,7-40.8,8.37-61.81,6.84-12.89-.94-25.57-2.93-37.76-7.62-30.66-11.79-42.92-39.09-39.17-69.35,3.62-29.26,24.08-48.35,57.2-54.26C1187.23,479.92,1197.3,478.11,1209.21,478.11Zm-.83,101.24c3.36-.16,5.95-.18,8.51-.42,16.78-1.61,28.19-13.86,29.29-31.38,1-15.71-9-30-24.47-33.21a68.38,68.38,0,0,0-20.85-.68c-17.15,1.83-28.1,14.38-28.65,31.73-.52,16.61,10,29.88,26.46,33.12A79.22,79.22,0,0,0,1208.38,579.35Z"/><path d="M3130.4,610.51h-21.23c-1.68-3.82-3.42-7.79-5.14-11.68-34,18.25-69.37,18.29-105,8.9-24.23-6.38-41-21.61-45.51-47.39-6.67-38.26,11-66.57,46.46-76.08,28.91-7.74,58.05-7.8,86.88.42,17.55,5,31.9,14.73,40.22,31.71,1.21,2.47,2,5.14,3.27,8.38h-57.44c-10.06-11.21-23.53-13.09-38.18-11.27-17.34,2.16-28.91,14.9-29.14,32.33-.23,16.9,11,31,27.79,32.68,10.13,1,12.38,2,24.31.06.37-.06,6.69-1.42,6.69-1.42,5.54-2.11,9.33-3.35,12.8-8.17-.19-.73.18.73,0,0h-18.82V547h72.07Z"/><path d="M3633.11,525h-56.84c-11.17-12.53-26.08-13.73-41.69-10.94s-25.91,16.19-25.81,32.38,10.16,29,26.26,31.93a73.38,73.38,0,0,0,34.18-1.51c4.09-1.22,9-3.76,11.17-7.71-.15-.66.16.66,0,0H3561.6v-22H3634v63.14h-21.85c-1.58-3.72-3.22-7.56-5.06-11.88a89.88,89.88,0,0,1-35.73,13.17c-25.9,3.71-51.48,2.94-76.35-6.1-50.57-18.37-48.49-84.09-19.39-107.21,12.16-9.67,26-14.74,41.08-17,24.61-3.74,49.14-3.73,73.21,3.45,17.49,5.21,31.9,14.7,40.3,31.64.83,1.68,1.59,3.4,2.25,5.15A23.37,23.37,0,0,1,3633.11,525Z"/><path d="M1940.86,610.44h-52.63V558.93H1818.6V610.4h-53.23V482.07h52.83v51.25h69.52V482.09h53.14Z"/><path d="M2155,482h147.82v30.31h-93.65v21.32h78.84V558.1h-78.83V579H2310v31.27H2155Z"/><path d="M1965.47,482.06h53.28V490c0,18.55-.2,37.1.13,55.64a71.3,71.3,0,0,0,2.64,17.27c2.28,8.41,8.28,13.91,16.76,15.27a57.32,57.32,0,0,0,19.51,0c12.17-2.32,18.92-12,19.17-26.81.34-20.42.18-40.85.23-61.28,0-2.52,0-5,0-8,18.21,0,36.41,0,53.74,0,0,.77.05,1.15.05,1.55-.17,24.17.82,48.42-.85,72.48-2.15,31-16.88,47-47.36,53.78-25.34,5.67-50.84,5.54-75.91-1.73-25.32-7.35-40.09-25.65-41-51.87-.84-23.68-.32-47.41-.36-71.13C1965.46,484.25,1965.46,483.52,1965.47,482.06Z"/><path d="M1614.48,481.86h50.59l82.38,128.62h-54.08q-5.82-9.88-12.08-20.56h-82.92l-12.27,20.67h-54Zm25.36,35.49-23.15,40.2h46.15Z"/><path d="M2809,481.9h50.67L2942,610.49H2888c-4-6.75-8-13.59-12.14-20.63h-82.93l-12,20.63h-54.1Zm25.4,35.38-23,40.12h45.89Z"/><path d="M3157.24,482h53.09V610.37h-53.09Z"/><path d="M2432.64,610.4h-52.78V482.25h52.78Z"/><path d="M1305.8,756.25c2.39-.15,4.45-.4,6.5-.4,34.37,0,68.75-.31,103.11.28,12.62.21,25.22,2.46,37.8,4.08,3.44.44,6.79,1.85,10.09,3,19.54,7.14,21.46,27.78,17.87,40.33-1.82,6.37-6.68,10.68-12.53,13.7-2,1-4.11,1.79-7.05,3,5,1.82,9.34,3,13.27,4.9,8.69,4.26,16.58,9.46,16.68,20.67.1,12.61-3.76,23.12-15.94,29.09s-25.16,8.45-38.25,8.76c-43.06,1-86.13,1.16-129.19,1.6a10.52,10.52,0,0,1-2.36-.6Zm53.84,96.8c19.93,0,38.9.05,57.88-.06,4.09-.27,4.85-.08,6.83-.77,4.19-1.46,5.82-5,5.8-9.63s-2.26-7.76-6.51-8.93a48.31,48.31,0,0,0-11.76-1.79c-15.49-.28-31-.27-46.48-.31h-5.76Zm0-64.81v21c17.14,0,33.33.13,49.51-.1,3.44,0,10.67,0,12.88-1.42,3.46-2.22,3.64-4.8,3.72-9.15.09-4.73-1.27-7.48-5.39-8.89a35,35,0,0,0-8.81-1.6"/><path d="M1711.53,755.77h12.07c30.13,0,60.26-.12,90.38.22,15.3.17,31.36.3,45.16,6.78,23.78,9.86,33.64,26,28.18,50.18-2.25,10-8.07,17.34-16.73,22.56-2.18,1.31-4.43,2.5-7.07,4,1.67.75,2.48,1.1,3.57,1.7,10.77,4.86,15,13.61,16.88,24.71,1,6.23,2.33,12.43,3.59,19.08h-51.08c-1.71-5.48-3.67-11.4-5.41-17.37-3.32-11.38-10.6-18-22.55-19.17-4.67-.44-9.37-.77-14.06-.84-9.35-.12-18.7,0-29,0v37.5h-54Zm54.4,60c14.75,0,29,.35,43.27-.17,6.23-.22,12.93-1,18.54-3.55,4.2-1.88,6.51-5,6.59-9.82.08-4.58-1.32-6.8-6.6-10.25a44.12,44.12,0,0,0-18.5-3.92c-18.29-.19-24,.08-42,0h-1.27Z"/><path d="M2383.07,753.05c16.31,0,32.4,1.53,47.9,7,27.9,9.8,42.8,30.85,42.82,60.43s-14.73,50.95-42.56,60.62c-20.32,7.06-41.47,8.71-62.67,6.4-12.5-1.37-25.26-3.58-37-7.81-26-9.36-39.62-30.67-39.65-58.94s13.59-49,39.3-59.39C2345,755.75,2361.79,753.07,2383.07,753.05Zm-.14,100.62c25.16,0,39.48-15.53,36.2-39.21-2.25-16.17-14.74-26.09-34.31-27.25-27.76-1.63-45.84,20.76-36.8,45.57C2353.1,846.7,2364.77,853.69,2382.93,853.67Z"/><path d="M1597.46,752.24c.55,0,.59,0,1.14,0,16.34.39,32.15,2.42,47.38,7.78,28,9.86,42.67,30.7,42.71,60.46,0,30-14.86,51.16-43.21,60.81-20.14,6.85-41,7.93-62,6.38-14.13-1-28-3.3-41-9.4-20.56-9.68-32.67-25.69-35-48.44-4.42-43.52,20-66.86,56.93-73.74A218.65,218.65,0,0,1,1597.46,752.24Zm0,101.26c1.87,0,3.76.09,5.63,0,20.13-1.15,33.21-16.21,31.54-36.28-1.54-18.47-15.73-30.05-36.81-30.06-21.62,0-36.09,12.33-36.9,31.46C1560,840,1574.12,853.56,1597.43,853.5Z"/><path d="M2114.59,885.11h-54.47L2048,864.55h-83c-3.83,6.55-7.85,13.42-12,20.54h-54.5c27.82-43.47,55.13-86.15,82.53-129h51Zm-108-93.16-23,40h45.9Z"/><path d="M1126.52,885.25H1072l82.58-129h51.07L1288.14,885h-54.49l-12.1-20.57h-82.81ZM1203.13,832l-22.94-40c-8,13.85-15.23,26.52-23,40Z"/><path d="M2754.45,824l-70.1-67.66h57.77l39,36.5,39.38-36.67h57.77l-69.87,67.54V885h-53.9Z"/><path d="M968,853.48h97.21V885H914.62V756.39H968Z"/><path d="M2227.29,787.05v98h-53.93v-97.8h-50.68V756.3h155.48v30.75Z"/><line class="cls-1" x1="408.71" y1="684.93" x2="1131.83" y2="684.93"/><path d="M2501.49,755.62h12.07c30.13,0,60.26-.12,90.38.22,15.3.17,31.36.3,45.16,6.78,23.78,9.86,33.64,26,28.18,50.19-2.25,10-8.07,17.33-16.73,22.55-2.18,1.31-4.43,2.5-7.07,4,1.67.75,2.48,1.11,3.57,1.7,10.77,4.87,15,13.61,16.88,24.72,1.05,6.23,2.33,12.42,3.59,19.07h-51.08c-1.71-5.48-3.67-11.39-5.41-17.37-3.32-11.38-10.6-18-22.55-19.17-4.67-.44-9.37-.77-14.06-.83-9.35-.13-18.7,0-29,0v37.5h-54Zm54.4,60c14.75,0,29,.35,43.27-.16,6.23-.23,12.93-1,18.54-3.56,4.2-1.88,6.51-5,6.59-9.82.08-4.57-1.32-6.79-6.6-10.24a44,44,0,0,0-18.5-3.93c-18.29-.19-24,.08-42,0h-1.27Z"/></g></svg>